<svg xmlns="http://www.w3.org/2000/svg" width="7" height="7" fill="none" viewBox="0 0 7 7"><g clip-path="url(#clip0_144_252)"><rect width="5" height="5" x="1" y="1" fill="#4285F4"/><rect width="1" height="1" x="2" fill="#533A38"/><rect width="1" height="1" x="4" fill="#533A38"/><rect width="1" height="1" x="2" y="6" fill="#533A38"/><rect width="1" height="1" x="4" y="6" fill="#533A38"/><rect width="1" height="1" x="1" y="1" fill="#533A38"/><rect width="1" height="1" x="3" y="1" fill="#533A38"/><rect width="1" height="1" x="6" y="2" fill="#533A38"/><rect width="1" height="1" x="5" y="3" fill="#533A38"/><rect width="1" height="1" x="5" y="3" fill="#533A38"/><rect width="1" height="1" x="1" y="3" fill="#533A38"/><rect width="1" height="1" x="6" y="4" fill="#533A38"/><rect width="1" height="1" y="2" fill="#533A38"/><rect width="1" height="1" y="4" fill="#533A38"/><rect width="1" height="1" x="5" y="1" fill="#533A38"/><rect width="1" height="1" x="1" y="5" fill="#533A38"/><rect width="1" height="1" x="3" y="5" fill="#533A38"/><rect width="1" height="1" x="5" y="5" fill="#533A38"/></g><defs><clipPath id="clip0_144_252"><rect width="7" height="7" fill="#fff"/></clipPath></defs></svg>